<?xml version="1.0" encoding="UTF-8"?>
<svg width="217px" height="163px" viewBox="0 0 217 163" version="1.1" xmlns="http://www.w3.org/2000/svg" xmlns:xlink="http://www.w3.org/1999/xlink">
    <!-- Generator: Sketch 63 (92445) - https://sketch.com -->
    <title>画板</title>
    <desc>Created with Sketch.</desc>
    <g id="画板" stroke="none" stroke-width="1" fill="none" fill-rule="evenodd">
        <rect fill="#FFFFFF" opacity="0" x="0" y="0" width="217" height="163"></rect>
        <g id="path" transform="translate(1.000000, 0.000000)" stroke="#2AE3B8" stroke-width="2.5">
            <path d="M0,98.2655158 C0,93.0639702 7.2926258,53.5502091 15.2376623,57.8152816 C20.5343532,60.6586631 24.7143683,79.1126385 27.7777076,113.177208 L38.322854,34.0570988 C41.7175094,63.7171418 44.2774831,80.0517395 46.0027754,83.0608917 C47.7280677,86.0700441 52.7286572,82.9221312 61.0045439,73.6171532 C58.5576464,105.740676 59.901901,118.927361 65.0373077,113.177208 C72.7404177,104.551977 78.1059304,47.454982 85.3364762,46.3725053 C92.5670218,45.2900286 90.3521069,104.309721 95.2891832,108.648234 C100.226259,112.986747 103.246671,66.7956199 109.921808,67.9771525 C116.596946,69.1586853 120.875879,113.177208 120.875879,113.177208 C120.875879,113.177208 124.220986,-13.0099879 134.524522,1.10103378 C144.828057,15.2120554 152.753012,147.466043 155.901808,161.146338 C159.050604,174.826633 166.082922,108.541685 167.288316,101.181214 C168.49371,93.8207422 169.192052,64.4151129 171.85797,63.713591 C173.635249,63.24591 175.805436,74.7632182 178.368531,98.2655158 C183.407344,75.2308994 187.655038,63.713591 191.111613,63.713591 C194.568188,63.713591 197.308552,75.2308994 199.332708,98.2655158 C205.422374,71.9642647 209.75955,58.4808534 212.344234,57.8152816 C214.928917,57.1497096 216.143044,69.2036272 215.986608,93.9770345" id="路径"></path>
        </g>
    </g>
</svg>